#Comment line ignore any data following # character 
#Hierarchical Translation and Rotation (.htr) file 
[Header]	
#Header keywords are followed by a single value 
FileType HTR		#Single word string
DataType HTRS		#Translation followed by rotation and scale data
FileVersion 1		#integer
NumSegments 84		#integer
NumFrames 2		#integer
DataFrameRate 30		#integer, data frame rate in this file
EulerRotationOrder ZYX
CalibrationUnits mm
RotationUnits Degrees
GlobalAxisofGravity Y
BoneLengthAxis Y
ScaleFactor 1.00
[SegmentNames&Hierarchy]
#CHILD	PARENT
MASTER GLOBAL
root MASTER
chest root
L_mid_tent01 root
R_mid_tent01 root
spine01 root
Bip01_Neck chest
L_humerus chest
R_humerus chest
weapon_bone chest
Bip01_Head Bip01_Neck
eye_left_bone Bip01_Head
eye_right_bone Bip01_Head
L_forearm L_humerus
L_front_hand L_forearm
L_weapon_bone L_forearm
L_front_hand01_01 L_front_hand
L_front_hand02_01 L_front_hand
L_front_hand03_01 L_front_hand
L_front_hand01_02 L_front_hand01_01
L_front_hand02_02 L_front_hand02_01
L_front_hand03_02 L_front_hand03_01
R_forearm R_humerus
R_front_hand R_forearm
R_weapon_bone R_forearm
R_front_hand01_01 R_front_hand
R_front_hand02_01 R_front_hand
R_front_hand03_01 R_front_hand
R_front_hand01_02 R_front_hand01_01
R_front_hand02_02 R_front_hand02_01
R_front_hand03_02 R_front_hand03_01
null_rope01_connect L_mid_tent01
Rope1_Seg01 null_rope01_connect
Rope1_Seg02 Rope1_Seg01
Rope1_Seg03 Rope1_Seg02
Rope1_Seg04 Rope1_Seg03
Rope1_Seg05 Rope1_Seg04
Rope1_Seg06 Rope1_Seg05
Rope1_Seg07 Rope1_Seg06
Rope1_Seg09 Rope1_Seg07
L_mid_hand01 Rope1_Seg09
L_mid_hand02 Rope1_Seg09
L_mid_hand03 Rope1_Seg09
null_rope02_connect R_mid_tent01
Rope2_Seg01 null_rope02_connect
Rope2_Seg02 Rope2_Seg01
Rope2_Seg03 Rope2_Seg02
Rope2_Seg04 Rope2_Seg03
Rope2_Seg05 Rope2_Seg04
Rope2_Seg06 Rope2_Seg05
Rope2_Seg07 Rope2_Seg06
Rope2_Seg09 Rope2_Seg07
R_mid_hand01 Rope2_Seg09
R_mid_hand02 Rope2_Seg09
R_mid_hand03 Rope2_Seg09
spine02 spine01
spine03 spine02
pelvis spine03
null_rope03_connect pelvis
null_rope04_connect pelvis
Rope3_Seg01 null_rope03_connect
Rope3_Seg02 Rope3_Seg01
Rope3_Seg03 Rope3_Seg02
Rope3_Seg04 Rope3_Seg03
Rope3_Seg05 Rope3_Seg04
Rope3_Seg06 Rope3_Seg05
Rope3_Seg07 Rope3_Seg06
Rope3_Seg08 Rope3_Seg07
Rope3_Seg09 Rope3_Seg08
R_rear_hand01 Rope3_Seg09
R_rear_hand02 Rope3_Seg09
R_rear_hand03 Rope3_Seg09
Rope4_Seg01 null_rope04_connect
Rope4_Seg02 Rope4_Seg01
Rope4_Seg03 Rope4_Seg02
Rope4_Seg04 Rope4_Seg03
Rope4_Seg05 Rope4_Seg04
Rope4_Seg06 Rope4_Seg05
Rope4_Seg07 Rope4_Seg06
Rope4_Seg08 Rope4_Seg07
Rope4_Seg09 Rope4_Seg08
L_rear_hand01 Rope4_Seg09
L_rear_hand02 Rope4_Seg09
L_rear_hand03 Rope4_Seg09
[BasePosition]
#SegmentName Tx, Ty, Tz, Rx, Ry, Rz, BoneLength
MASTER 0.000000 0.000000 0.000000 -90.000000 0.000000 0.000000 10.000000 
root 0.000000 0.000000 0.000000 0.000000 0.000000 0.000000 10.000000 
chest 0.000000 0.000000 0.000000 0.000000 0.000000 0.000000 10.000000 
L_mid_tent01 0.000000 0.000000 0.000000 0.000000 0.000000 0.000000 10.000000 
R_mid_tent01 0.000000 0.000000 0.000000 0.000000 0.000000 0.000000 10.000000 
spine01 0.000000 0.000000 0.000000 0.000000 0.000000 0.000000 10.000000 
Bip01_Neck 0.000000 0.000000 0.000000 0.000000 0.000000 0.000000 10.000000 
L_humerus 0.000000 0.000000 0.000000 0.000000 0.000000 0.000000 10.000000 
R_humerus 0.000000 0.000000 0.000000 0.000000 0.000000 0.000000 10.000000 
weapon_bone 0.000000 0.000000 0.000000 0.000000 0.000000 0.000000 10.000000 
Bip01_Head 0.000000 0.000000 0.000000 0.000000 0.000000 0.000000 10.000000 
eye_left_bone 0.000000 0.000000 0.000000 0.000000 0.000000 0.000000 10.000000 
eye_right_bone 0.000000 0.000000 0.000000 0.000000 0.000000 0.000000 10.000000 
L_forearm 0.000000 0.000000 0.000000 0.000000 0.000000 0.000000 10.000000 
L_front_hand 0.000000 0.000000 0.000000 0.000000 0.000000 0.000000 10.000000 
L_weapon_bone 0.000000 0.000000 0.000000 0.000000 0.000000 0.000000 10.000000 
L_front_hand01_01 0.000000 0.000000 0.000000 0.000000 0.000000 0.000000 10.000000 
L_front_hand02_01 0.000000 0.000000 0.000000 0.000000 0.000000 0.000000 10.000000 
L_front_hand03_01 0.000000 0.000000 0.000000 0.000000 0.000000 0.000000 10.000000 
L_front_hand01_02 0.000000 0.000000 0.000000 0.000000 0.000000 0.000000 10.000000 
L_front_hand02_02 0.000000 0.000000 0.000000 0.000000 0.000000 0.000000 10.000000 
L_front_hand03_02 0.000000 0.000000 0.000000 0.000000 0.000000 0.000000 10.000000 
R_forearm 0.000000 0.000000 0.000000 0.000000 0.000000 0.000000 10.000000 
R_front_hand 0.000000 0.000000 0.000000 0.000000 0.000000 0.000000 10.000000 
R_weapon_bone 0.000000 0.000000 0.000000 0.000000 0.000000 0.000000 10.000000 
R_front_hand01_01 0.000000 0.000000 0.000000 0.000000 0.000000 0.000000 10.000000 
R_front_hand02_01 0.000000 0.000000 0.000000 0.000000 0.000000 0.000000 10.000000 
R_front_hand03_01 0.000000 0.000000 0.000000 0.000000 0.000000 0.000000 10.000000 
R_front_hand01_02 0.000000 0.000000 0.000000 0.000000 0.000000 0.000000 10.000000 
R_front_hand02_02 0.000000 0.000000 0.000000 0.000000 0.000000 0.000000 10.000000 
R_front_hand03_02 0.000000 0.000000 0.000000 0.000000 0.000000 0.000000 10.000000 
null_rope01_connect 0.000000 0.000000 0.000000 0.000000 0.000000 0.000000 10.000000 
Rope1_Seg01 0.000000 0.000000 0.000000 0.000000 0.000000 0.000000 10.000000 
Rope1_Seg02 0.000000 0.000000 0.000000 0.000000 0.000000 0.000000 10.000000 
Rope1_Seg03 0.000000 0.000000 0.000000 0.000000 0.000000 0.000000 10.000000 
Rope1_Seg04 0.000000 0.000000 0.000000 0.000000 0.000000 0.000000 10.000000 
Rope1_Seg05 0.000000 0.000000 0.000000 0.000000 0.000000 0.000000 10.000000 
Rope1_Seg06 0.000000 0.000000 0.000000 0.000000 0.000000 0.000000 10.000000 
Rope1_Seg07 0.000000 0.000000 0.000000 0.000000 0.000000 0.000000 10.000000 
Rope1_Seg09 0.000000 0.000000 0.000000 0.000000 0.000000 0.000000 10.000000 
L_mid_hand01 0.000000 0.000000 0.000000 0.000000 0.000000 0.000000 10.000000 
L_mid_hand02 0.000000 0.000000 0.000000 0.000000 0.000000 0.000000 10.000000 
L_mid_hand03 0.000000 0.000000 0.000000 0.000000 0.000000 0.000000 10.000000 
null_rope02_connect 0.000000 0.000000 0.000000 0.000000 0.000000 0.000000 10.000000 
Rope2_Seg01 0.000000 0.000000 0.000000 0.000000 0.000000 0.000000 10.000000 
Rope2_Seg02 0.000000 0.000000 0.000000 0.000000 0.000000 0.000000 10.000000 
Rope2_Seg03 0.000000 0.000000 0.000000 0.000000 0.000000 0.000000 10.000000 
Rope2_Seg04 0.000000 0.000000 0.000000 0.000000 0.000000 0.000000 10.000000 
Rope2_Seg05 0.000000 0.000000 0.000000 0.000000 0.000000 0.000000 10.000000 
Rope2_Seg06 0.000000 0.000000 0.000000 0.000000 0.000000 0.000000 10.000000 
Rope2_Seg07 0.000000 0.000000 0.000000 0.000000 0.000000 0.000000 10.000000 
Rope2_Seg09 0.000000 0.000000 0.000000 0.000000 0.000000 0.000000 10.000000 
R_mid_hand01 0.000000 0.000000 0.000000 0.000000 0.000000 0.000000 10.000000 
R_mid_hand02 0.000000 0.000000 0.000000 0.000000 0.000000 0.000000 10.000000 
R_mid_hand03 0.000000 0.000000 0.000000 0.000000 0.000000 0.000000 10.000000 
spine02 0.000000 0.000000 0.000000 0.000000 0.000000 0.000000 10.000000 
spine03 0.000000 0.000000 0.000000 0.000000 0.000000 0.000000 10.000000 
pelvis 0.000000 0.000000 0.000000 0.000000 0.000000 0.000000 10.000000 
null_rope03_connect 0.000000 0.000000 0.000000 0.000000 0.000000 0.000000 10.000000 
null_rope04_connect 0.000000 0.000000 0.000000 0.000000 0.000000 0.000000 10.000000 
Rope3_Seg01 0.000000 0.000000 0.000000 0.000000 0.000000 0.000000 10.000000 
Rope3_Seg02 0.000000 0.000000 0.000000 0.000000 0.000000 0.000000 10.000000 
Rope3_Seg03 0.000000 0.000000 0.000000 0.000000 0.000000 0.000000 10.000000 
Rope3_Seg04 0.000000 0.000000 0.000000 0.000000 0.000000 0.000000 10.000000 
Rope3_Seg05 0.000000 0.000000 0.000000 0.000000 0.000000 0.000000 10.000000 
Rope3_Seg06 0.000000 0.000000 0.000000 0.000000 0.000000 0.000000 10.000000 
Rope3_Seg07 0.000000 0.000000 0.000000 0.000000 0.000000 0.000000 10.000000 
Rope3_Seg08 0.000000 0.000000 0.000000 0.000000 0.000000 0.000000 10.000000 
Rope3_Seg09 0.000000 0.000000 0.000000 0.000000 0.000000 0.000000 10.000000 
R_rear_hand01 0.000000 0.000000 0.000000 0.000000 0.000000 0.000000 10.000000 
R_rear_hand02 0.000000 0.000000 0.000000 0.000000 0.000000 0.000000 10.000000 
R_rear_hand03 0.000000 0.000000 0.000000 0.000000 0.000000 0.000000 10.000000 
Rope4_Seg01 0.000000 0.000000 0.000000 0.000000 0.000000 0.000000 10.000000 
Rope4_Seg02 0.000000 0.000000 0.000000 0.000000 0.000000 0.000000 10.000000 
Rope4_Seg03 0.000000 0.000000 0.000000 0.000000 0.000000 0.000000 10.000000 
Rope4_Seg04 0.000000 0.000000 0.000000 0.000000 0.000000 0.000000 10.000000 
Rope4_Seg05 0.000000 0.000000 0.000000 0.000000 0.000000 0.000000 10.000000 
Rope4_Seg06 0.000000 0.000000 0.000000 0.000000 0.000000 0.000000 10.000000 
Rope4_Seg07 0.000000 0.000000 0.000000 0.000000 0.000000 0.000000 10.000000 
Rope4_Seg08 0.000000 0.000000 0.000000 0.000000 0.000000 0.000000 10.000000 
Rope4_Seg09 0.000000 0.000000 0.000000 0.000000 0.000000 0.000000 10.000000 
L_rear_hand01 0.000000 0.000000 0.000000 0.000000 0.000000 0.000000 10.000000 
L_rear_hand02 0.000000 0.000000 0.000000 0.000000 0.000000 0.000000 10.000000 
L_rear_hand03 0.000000 0.000000 0.000000 0.000000 0.000000 0.000000 10.000000 
#Beginning of Data. Separated by tabs
#Fr	Tx	Ty	Tz	Rx	Ry	Rz	SF
[MASTER]
31 0.000005 62.822109 0.000000 0.001660 0.001660 0.001660 62.822113
32 0.000005 62.822109 0.000000 0.001660 0.001660 0.001660 62.822113
[root]
31 -16.502295 -62.822117 1500.000000 -92.499542 -25.389713 -74.380608 1501.405640
32 -16.502295 -62.822117 1500.000000 -92.257652 -24.418453 -78.509644 1501.405640
[chest]
31 -84.512650 -34.090519 0.000000 0.643974 -9.326596 178.779282 91.129311
32 -84.512650 -34.090519 0.000000 -0.204921 -7.458776 179.416763 91.129311
[L_mid_tent01]
31 27.299482 22.177553 -249.917999 -54.883850 60.032406 57.850582 252.380890
32 27.299479 22.177557 -249.917999 -45.497715 55.757813 59.929653 252.380890
[R_mid_tent01]
31 23.228794 24.509907 226.238495 149.357941 -21.656092 92.062065 228.744751
32 23.228794 24.509907 226.238495 154.035400 -28.287601 86.942284 228.744751
[spine01]
31 -0.361383 -0.195265 0.000000 0.293577 0.402050 13.573240 0.410763
32 -0.361383 -0.195265 0.000000 0.390566 0.410416 13.913397 0.410763
[Bip01_Neck]
31 165.484543 71.581718 0.000119 175.896118 1.177290 24.871183 180.302734
32 165.484543 71.581718 0.000119 175.896118 1.177290 24.871183 180.302734
[L_humerus]
31 -13.983130 -135.272980 -120.471481 45.566196 54.016743 140.686493 181.680161
32 -13.983130 -135.272980 -120.471481 41.185619 57.275974 135.312851 181.680161
[R_humerus]
31 -13.983309 -135.273102 125.287651 111.096954 -29.068602 -23.433470 184.909012
32 -13.983309 -135.273102 125.287651 111.208878 -37.641308 -23.237621 184.909012
[weapon_bone]
31 235.964890 -300.705902 0.000000 0.000000 -89.951546 -128.212341 382.234833
32 235.964890 -300.705902 0.000000 0.000000 -89.951546 -128.212341 382.234833
[Bip01_Head]
31 261.355804 108.959602 -2.864211 2.248029 5.843378 -62.458351 283.173553
32 261.355804 108.959610 -2.864211 2.248029 5.843377 -62.458344 283.173553
[eye_left_bone]
31 -24.626970 125.451866 -64.772606 0.000000 -90.000000 -99.840431 143.318359
32 -24.626970 125.451866 -64.772606 0.000000 -90.000000 -99.840431 143.318359
[eye_right_bone]
31 -24.626970 125.451866 64.327362 0.000000 -89.960434 80.159386 143.117676
32 -24.626970 125.451866 64.327362 0.000000 -89.960434 80.159386 143.117676
[L_forearm]
31 322.776093 0.000000 -0.000119 0.000183 0.002340 -81.045212 322.776093
32 322.776093 0.000000 -0.000119 0.000183 0.002340 -81.045212 322.776093
[L_front_hand]
31 241.149185 -0.042021 -3.300071 -178.663147 -1.834274 -27.422415 241.171753
32 241.149185 -0.042021 -3.300071 -178.663147 -1.834274 -27.422415 241.171753
[L_weapon_bone]
31 156.183838 0.000000 0.000000 0.001660 0.001660 0.001660 156.183838
32 156.183838 0.000000 0.000000 0.001660 0.001660 0.001660 156.183838
[L_front_hand01_01]
31 86.095154 20.947098 -0.655860 -0.363570 -0.473241 75.385521 88.609184
32 86.095154 20.947098 -0.655860 -0.363570 -0.473241 75.385529 88.609184
[L_front_hand02_01]
31 86.935165 -11.437475 24.513514 154.403519 -59.888931 -61.371990 91.046425
32 86.935165 -11.437475 24.513514 154.403519 -59.888931 -61.371990 91.046425
[L_front_hand03_01]
31 86.637497 -14.123976 -20.424902 -153.913849 58.118130 -62.702866 90.126129
32 86.637497 -14.123976 -20.424902 -153.913849 58.118122 -62.702866 90.126129
[L_front_hand01_02]
31 71.020905 -0.000179 0.000030 0.000334 -0.002323 -106.379684 71.020905
32 71.020905 -0.000179 0.000030 0.000334 -0.002323 -106.379684 71.020905
[L_front_hand02_02]
31 71.020927 -0.000119 0.000060 0.000334 -0.002323 -106.379684 71.020927
32 71.020927 -0.000119 0.000060 0.000334 -0.002323 -106.379684 71.020927
[L_front_hand03_02]
31 71.020905 -0.000060 0.000060 0.000334 -0.002323 -106.379684 71.020905
32 71.020905 -0.000060 0.000060 0.000334 -0.002323 -106.379684 71.020905
[R_forearm]
31 322.776428 -0.000060 0.000030 0.190071 -0.094633 -64.364822 322.776428
32 322.776428 -0.000060 0.000030 0.194765 -0.080604 -68.640808 322.776428
[R_front_hand]
31 238.847015 -0.006795 2.210259 -0.857575 1.493283 -18.618427 238.857239
32 238.847015 -0.006795 2.210259 -0.953804 1.433603 -22.390289 238.857239
[R_weapon_bone]
31 155.664093 0.002503 -0.000030 0.002497 -0.002704 -31.830994 155.664078
32 155.664093 0.002503 -0.000030 0.002497 -0.002704 -31.830994 155.664078
[R_front_hand01_01]
31 87.624611 14.231146 22.918642 -154.633484 -59.950607 61.746033 91.683487
32 87.624611 14.231146 22.918642 -154.633499 -59.950619 61.746044 91.683487
[R_front_hand02_01]
31 89.356956 14.367283 -19.491137 154.595825 58.306164 63.741703 92.579636
32 89.356956 14.367283 -19.491137 154.595840 58.306175 63.741730 92.579636
[R_front_hand03_01]
31 87.286232 -22.307278 -0.143439 0.162155 -0.423168 -75.767906 90.091743
32 87.286232 -22.307278 -0.143439 0.162155 -0.423168 -75.767921 90.091743
[R_front_hand01_02]
31 71.020905 0.000060 0.000119 0.002323 -0.000334 106.381714 71.020905
32 71.020905 0.000060 0.000119 0.002323 -0.000334 106.381714 71.020905
[R_front_hand02_02]
31 71.020844 -0.000030 -0.000119 0.002323 -0.000334 106.381714 71.020836
32 71.020844 -0.000030 -0.000119 0.002323 -0.000334 106.381714 71.020836
[R_front_hand03_02]
31 71.020905 0.000000 0.000030 0.002323 -0.000334 106.381714 71.020905
32 71.020905 0.000000 0.000030 0.002323 -0.000334 106.381714 71.020905
[null_rope01_connect]
31 328.732483 0.000000 -0.000238 175.264206 -13.695086 -139.811676 328.732483
32 328.732483 0.000000 -0.000238 179.414001 -21.448811 -142.638321 328.732483
[Rope1_Seg01]
31 0.000000 0.000000 0.000000 4.432958 -18.302423 -79.915482 0.000000
32 0.000000 0.000000 0.000000 3.248234 -16.089598 -79.656990 0.000000
[Rope1_Seg02]
31 139.999863 -0.000179 0.000000 -0.172630 2.950955 -3.115033 139.999863
32 139.999863 -0.000179 0.000000 -0.100779 2.423597 -2.620074 139.999863
[Rope1_Seg03]
31 139.999924 0.000060 -0.000060 -0.303750 3.995076 -4.211316 139.999924
32 139.999924 0.000060 -0.000060 -0.169978 3.208145 -3.476859 139.999924
[Rope1_Seg04]
31 139.999924 -0.000060 -0.000119 -0.844954 5.819689 -5.822948 139.999924
32 139.999924 -0.000060 -0.000119 -0.326692 4.424335 -4.778586 139.999924
[Rope1_Seg05]
31 139.999832 0.000119 -0.000060 -8.449319 11.934161 -7.373343 139.999832
32 139.999832 0.000119 -0.000060 -5.037765 9.268880 -6.061334 139.999832
[Rope1_Seg06]
31 139.999954 0.000119 -0.000060 1.366279 9.103813 -11.125886 139.999954
32 139.999954 0.000119 -0.000060 -2.742035 9.338966 -9.608991 139.999954
[Rope1_Seg07]
31 139.999985 0.000060 0.000000 77.286079 -1.531730 -14.563164 139.999985
32 139.999985 0.000060 0.000000 44.952599 0.233169 -12.833425 139.999985
[Rope1_Seg09]
31 121.602913 0.000119 -0.000089 -89.793175 -1.359789 0.847147 121.602913
32 121.602913 0.000119 -0.000089 -89.793175 -1.359789 0.847147 121.602913
[L_mid_hand01]
31 103.859421 1.038730 8.195221 105.620987 -22.988335 -6.761933 104.187431
32 103.859421 1.038730 8.195221 105.620987 -22.988335 -6.761933 104.187431
[L_mid_hand02]
31 105.572853 -4.139662 -10.864139 -139.491974 20.327143 -21.528740 106.211075
32 105.572853 -4.139662 -10.864139 -139.491974 20.327143 -21.528740 106.211075
[L_mid_hand03]
31 104.641464 17.579376 -3.913581 -17.354420 7.254997 25.905659 106.179977
32 104.641464 17.579376 -3.913581 -17.354424 7.254999 25.905664 106.179977
[null_rope02_connect]
31 328.732849 0.000179 -0.000119 -94.262726 38.880322 57.621387 328.732849
32 328.732849 0.000179 -0.000119 -101.550095 42.598602 45.876476 328.732849
[Rope2_Seg01]
31 -0.000045 0.000149 0.000025 155.723953 73.149017 -85.477844 0.000158
32 -0.000043 0.000150 0.000021 -165.740585 68.645569 -50.636219 0.000158
[Rope2_Seg02]
31 139.999741 -0.000060 -0.000119 -0.830338 -10.236597 5.510448 139.999756
32 139.999741 -0.000060 -0.000119 -1.890664 -4.177376 4.486801 139.999756
[Rope2_Seg03]
31 140.000107 0.000030 0.000000 -0.042705 -9.254322 3.245663 140.000107
32 140.000107 0.000030 0.000000 -1.322026 -5.210063 4.479325 140.000107
[Rope2_Seg04]
31 139.999802 0.000000 -0.000060 -0.414749 -9.967878 4.715615 139.999802
32 139.999802 0.000000 -0.000060 0.855277 -4.555087 0.066657 139.999802
[Rope2_Seg05]
31 139.999985 -0.000060 0.000119 -1.035363 -20.842884 21.138136 139.999985
32 139.999985 -0.000060 0.000119 -7.159225 -14.409634 28.226898 139.999985
[Rope2_Seg06]
31 139.999893 -0.000030 -0.000119 4.758705 -12.569615 13.832133 139.999893
32 139.999893 -0.000030 -0.000119 2.428003 -17.541529 34.483490 139.999893
[Rope2_Seg07]
31 139.999893 0.000060 -0.000060 4.465919 -5.028979 6.418114 139.999893
32 139.999893 0.000060 -0.000060 6.300835 -4.941381 11.849071 139.999893
[Rope2_Seg09]
31 121.338966 0.000089 -0.000060 33.793236 -1.359788 -0.847141 121.338966
32 121.338966 0.000089 -0.000060 33.793236 -1.359788 -0.847141 121.338966
[R_mid_hand01]
31 104.680779 11.144459 -10.335981 -44.070736 19.764444 21.986286 105.778534
32 104.680779 11.144459 -10.335981 -44.070736 19.764444 21.986286 105.778534
[R_mid_hand02]
31 104.070427 2.443552 8.231699 74.148849 -24.768806 7.320621 104.424065
32 104.070427 2.443552 8.231699 74.148849 -24.768806 7.320621 104.424065
[R_mid_hand03]
31 106.028137 -11.221827 -5.996406 -166.566208 8.416404 -28.789036 106.788818
32 106.028137 -11.221827 -5.996406 -166.566208 8.416404 -28.789036 106.788818
[spine02]
31 129.756927 0.001550 0.000119 -0.154559 -4.005382 -5.659144 129.756927
32 129.756927 0.001550 0.000119 -0.171269 -4.014547 -5.428163 129.756927
[spine03]
31 79.115631 -0.000108 0.000000 1.907030 -2.965995 23.921795 79.115631
32 79.115623 -0.000090 0.000000 1.907030 -2.965995 23.921797 79.115623
[pelvis]
31 169.435242 0.051022 0.000000 1.660316 3.014646 -4.319757 169.435257
32 169.435242 0.051022 0.000000 -6.256228 2.723334 -4.071888 169.435257
[null_rope03_connect]
31 -1.257226 -2.466202 137.391083 88.227196 -72.354095 -0.654895 137.418976
32 -1.257226 -2.466202 137.391083 116.166931 -73.990982 -29.449461 137.418976
[null_rope04_connect]
31 -1.259640 -2.480268 -137.844437 88.227196 -72.354095 -0.654895 137.872513
32 -1.259640 -2.480268 -137.844437 116.166931 -73.990982 -29.449461 137.872513
[Rope3_Seg01]
31 0.000000 0.000000 0.000000 -122.197754 10.589943 -44.872211 0.000000
32 0.000000 0.000000 0.000000 -122.054688 19.997852 -52.633129 0.000000
[Rope3_Seg02]
31 139.999924 -0.000119 0.000060 4.130286 -14.026797 -19.131968 139.999924
32 139.999924 -0.000119 0.000060 2.817362 -11.415584 -12.123968 139.999924
[Rope3_Seg03]
31 139.999924 -0.000119 0.000119 -145.973587 -20.255833 -39.994911 139.999924
32 139.999924 -0.000119 0.000119 18.462400 -24.643795 -37.370556 139.999924
[Rope3_Seg04]
31 139.999924 0.000119 0.000000 -44.708206 25.641802 1.261647 139.999924
32 139.999924 0.000119 0.000000 103.259087 -31.622414 -2.879265 139.999924
[Rope3_Seg05]
31 139.999924 -0.000238 0.000060 -20.063013 32.130280 5.777461 139.999924
32 139.999924 -0.000238 0.000060 -1.251369 31.014414 28.915787 139.999924
[Rope3_Seg06]
31 139.999893 -0.000119 -0.000060 -0.495903 11.903354 10.476778 139.999893
32 139.999893 -0.000119 -0.000060 1.679306 8.946726 14.588955 139.999893
[Rope3_Seg07]
31 139.999771 0.000060 -0.000119 0.300372 5.817520 5.386922 139.999771
32 139.999771 0.000060 -0.000119 0.585716 2.249949 3.530771 139.999771
[Rope3_Seg08]
31 139.999985 -0.000060 0.000000 0.469151 1.667226 1.531951 139.999985
32 139.999985 -0.000060 0.000000 0.535796 0.001652 0.001667 139.999985
[Rope3_Seg09]
31 90.185997 -0.000179 -0.000060 89.793228 -1.359877 -0.847183 90.185997
32 90.185997 -0.000179 -0.000060 89.793228 -1.359877 -0.847183 90.185997
[R_rear_hand01]
31 103.366196 -6.073594 -10.757982 -160.090088 14.865479 -24.717995 104.101845
32 103.366196 -6.073594 -10.757982 -160.090088 14.865479 -24.717995 104.101845
[R_rear_hand02]
31 100.509819 12.039542 -7.992327 -35.711582 16.148796 24.170401 101.543350
32 100.509819 12.039542 -7.992327 -35.711582 16.148796 24.170401 101.543350
[R_rear_hand03]
31 101.539970 5.215704 5.435467 83.699936 -25.497597 6.583542 101.819031
32 101.539970 5.215704 5.435467 83.699936 -25.497597 6.583542 101.819031
[Rope4_Seg01]
31 0.000005 -0.000045 -0.000025 44.860592 13.718683 -111.493187 0.000051
32 0.000006 -0.000043 -0.000021 44.267780 13.596258 -113.750153 0.000049
[Rope4_Seg02]
31 139.999985 0.000060 0.000119 -0.986191 2.114755 -8.621995 139.999985
32 139.999985 0.000060 0.000119 -1.082753 1.003876 -7.769216 139.999985
[Rope4_Seg03]
31 139.999924 0.000000 -0.000238 -2.621651 3.837996 -14.767658 139.999924
32 139.999924 0.000000 -0.000238 -2.603314 1.869607 -12.588257 139.999924
[Rope4_Seg04]
31 139.999985 0.000000 0.000119 -6.980810 11.158963 -24.509647 139.999985
32 139.999985 0.000000 0.000119 -7.422715 6.671126 -22.384283 139.999985
[Rope4_Seg05]
31 139.999802 -0.000060 -0.000119 -5.025358 4.653945 -20.483152 139.999802
32 139.999802 -0.000060 -0.000119 -6.592639 2.341746 -18.841644 139.999802
[Rope4_Seg06]
31 139.999924 0.000000 0.000060 -19.420975 -10.121896 -50.106964 139.999924
32 139.999924 0.000000 0.000060 -37.941631 -12.455590 -62.859829 139.999924
[Rope4_Seg07]
31 139.999802 0.000000 0.000000 -33.962482 9.516150 -36.890282 139.999802
32 139.999802 0.000000 0.000000 -35.961060 22.790411 -34.814713 139.999802
[Rope4_Seg08]
31 139.999924 0.000000 0.000119 -8.067363 7.317417 -6.693239 139.999924
32 139.999924 0.000000 0.000119 -3.042469 3.697908 -1.695458 139.999924
[Rope4_Seg09]
31 90.185791 0.000060 0.000060 -135.617828 2.228885 0.850567 90.185791
32 90.185791 0.000060 0.000060 -135.617828 2.228885 0.850567 90.185791
[L_rear_hand01]
31 101.696655 -8.392275 -7.654577 -36.242058 -14.765300 157.809067 102.329041
32 101.696655 -8.392275 -7.654577 -36.242058 -14.765300 157.809067 102.329041
[L_rear_hand02]
31 102.726799 -1.568258 5.773216 83.814362 23.151863 173.698151 102.900848
32 102.726799 -1.568258 5.773216 83.814362 23.151863 173.698151 102.900848
[L_rear_hand03]
31 104.552910 9.721220 -10.420293 -159.518845 -14.052428 -157.569275 105.519653
32 104.552910 9.721220 -10.420293 -159.518845 -14.052428 -157.569275 105.519653
